<?xml version="1.0" encoding="utf-8"?>
<!-- Generator: Adobe Illustrator 24.2.1, SVG Export Plug-In . SVG Version: 6.00 Build 0)  -->
<svg version="1.1" xmlns="http://www.w3.org/2000/svg" xmlns:xlink="http://www.w3.org/1999/xlink" x="0px" y="0px"
	 viewBox="0 0 628 625" style="enable-background:new 0 0 628 625;" xml:space="preserve">
<style type="text/css">
	.st0{fill:#F4F4F4;fill-opacity:0;}
	.st1{display:none;}
	.st2{display:inline;opacity:0.61;fill:#009640;}
	.st3{fill:#EFEFEF;}
	.st4{opacity:0.61;fill:#FFFFFF;stroke:#14080E;stroke-width:2.1636;stroke-miterlimit:10;stroke-dasharray:12.9816;}
	.st5{fill:none;stroke:#14080E;stroke-width:2.2991;stroke-miterlimit:10;stroke-dasharray:13.6861,13.6861;}
	.st6{fill:none;stroke:#808BC5;stroke-width:0.9134;stroke-miterlimit:10;stroke-dasharray:10.9609;}
	.st7{fill:none;stroke:#808BC5;stroke-width:1.1496;stroke-miterlimit:10;}
	.st8{fill:none;stroke:#808BC5;stroke-width:1.1496;stroke-miterlimit:10;stroke-dasharray:13.7948,13.7948;}
	.st9{fill:none;stroke:#808BC5;stroke-width:0.7664;stroke-miterlimit:10;}
	.st10{fill:none;stroke:#808BC5;stroke-width:0.7664;stroke-miterlimit:10;stroke-dasharray:9.1965,9.1965;}
	.st11{fill:none;stroke:#808BC5;stroke-width:0.7088;stroke-miterlimit:10;stroke-dasharray:8.5061;}
	.st12{fill:none;stroke:#808BC5;stroke-width:0.899;stroke-miterlimit:10;stroke-dasharray:10.7882;}
</style>
<g id="Layer_7">
</g>
<g id="leaf" class="st1">
</g>
<g id="bg">
</g>
<g id="type">
</g>
<g id="circle-stroke">
</g>
<g id="_x34_-circle-stroke">
</g>
<g id="cross">
</g>
<g id="squares">
	<path class="st0" d="M395.1,399.1c0,61.3-33.3,114.7-82.8,143.3c24.4,14.1,52.6,22.2,82.8,22.2c91.4,0,165.5-74.1,165.5-165.5
		c0-30.2-8.1-58.4-22.2-82.8C509.8,365.8,456.3,399.1,395.1,399.1z"/>
	<path class="st0" d="M229.5,399.1c-61.3,0-114.7-33.3-143.3-82.8C72.1,340.6,64,368.9,64,399.1c0,91.4,74.1,165.5,165.5,165.5
		c30.2,0,58.4-8.1,82.8-22.2C262.8,513.8,229.5,460.3,229.5,399.1z"/>
	<path class="st0" d="M229.5,233.5c0-61.3,33.3-114.7,82.8-143.3C287.9,76.1,259.7,68,229.5,68C138.1,68,64,142.1,64,233.5
		c0,30.2,8.1,58.4,22.2,82.8C114.8,266.8,168.3,233.5,229.5,233.5z"/>
	<path class="st0" d="M395.1,233.5c61.3,0,114.7,33.3,143.3,82.8c14.1-24.4,22.2-52.6,22.2-82.8c0-91.4-74.1-165.5-165.5-165.5
		c-30.2,0-58.4,8.1-82.8,22.2C361.8,118.8,395.1,172.3,395.1,233.5z"/>
	<circle class="st4" cx="312.3" cy="316.3" r="285.7"/>
	<g>
		<circle class="st5" cx="395.1" cy="233.5" r="165.5"/>
	</g>
	<g>
		<circle class="st5" cx="395.1" cy="399.1" r="165.5"/>
	</g>
	<g>
		<circle class="st5" cx="229.5" cy="233.5" r="165.5"/>
	</g>
	<g>
		<circle class="st5" cx="229.5" cy="399.1" r="165.5"/>
	</g>
	
		<rect x="24.6" y="229.2" transform="matrix(-1.836970e-16 1 -1 -1.836970e-16 624.3008 -0.2723)" class="st6" width="575.4" height="165.5"/>
	<rect x="24.6" y="233.5" class="st6" width="575.4" height="165.5"/>
	<g>
		<g>
			<polyline class="st7" points="312.3,309.4 312.3,316.3 305.4,316.3 			"/>
			<line class="st8" x1="291.6" y1="316.3" x2="77.8" y2="316.3"/>
			<polyline class="st7" points="70.9,316.3 64,316.3 64,309.4 			"/>
			<line class="st8" x1="64" y1="295.6" x2="64" y2="81.8"/>
			<polyline class="st7" points="64,74.9 64,68 70.9,68 			"/>
			<line class="st8" x1="84.7" y1="68" x2="298.5" y2="68"/>
			<polyline class="st7" points="305.4,68 312.3,68 312.3,74.9 			"/>
			<line class="st8" x1="312.3" y1="88.7" x2="312.3" y2="302.5"/>
		</g>
	</g>
	<g>
		<g>
			<polyline class="st9" points="395.1,394.5 395.1,399.1 390.5,399.1 			"/>
			<line class="st10" x1="381.3" y1="399.1" x2="238.7" y2="399.1"/>
			<polyline class="st9" points="234.1,399.1 229.5,399.1 229.5,394.5 			"/>
			<line class="st10" x1="229.5" y1="385.3" x2="229.5" y2="242.7"/>
			<polyline class="st9" points="229.5,238.1 229.5,233.5 234.1,233.5 			"/>
			<line class="st10" x1="243.3" y1="233.5" x2="385.9" y2="233.5"/>
			<polyline class="st9" points="390.5,233.5 395.1,233.5 395.1,238.1 			"/>
			<line class="st10" x1="395.1" y1="247.3" x2="395.1" y2="389.9"/>
		</g>
	</g>
	<g>
		<g>
			<polyline class="st7" points="560.6,309.4 560.6,316.3 553.7,316.3 			"/>
			<line class="st8" x1="539.9" y1="316.3" x2="326.1" y2="316.3"/>
			<polyline class="st7" points="319.2,316.3 312.3,316.3 312.3,309.4 			"/>
			<line class="st8" x1="312.3" y1="295.6" x2="312.3" y2="81.8"/>
			<polyline class="st7" points="312.3,74.9 312.3,68 319.2,68 			"/>
			<line class="st8" x1="333" y1="68" x2="546.8" y2="68"/>
			<polyline class="st7" points="553.7,68 560.6,68 560.6,74.9 			"/>
			<line class="st8" x1="560.6" y1="88.7" x2="560.6" y2="302.5"/>
		</g>
	</g>
	<g>
		<g>
			<polyline class="st7" points="312.3,557.7 312.3,564.6 305.4,564.6 			"/>
			<line class="st8" x1="291.6" y1="564.6" x2="77.8" y2="564.6"/>
			<polyline class="st7" points="70.9,564.6 64,564.6 64,557.7 			"/>
			<line class="st8" x1="64" y1="543.9" x2="64" y2="330.1"/>
			<polyline class="st7" points="64,323.2 64,316.3 70.9,316.3 			"/>
			<line class="st8" x1="84.7" y1="316.3" x2="298.5" y2="316.3"/>
			<polyline class="st7" points="305.4,316.3 312.3,316.3 312.3,323.2 			"/>
			<line class="st8" x1="312.3" y1="337" x2="312.3" y2="550.8"/>
		</g>
	</g>
	<g>
		<g>
			<polyline class="st7" points="560.6,557.7 560.6,564.6 553.7,564.6 			"/>
			<line class="st8" x1="539.9" y1="564.6" x2="326.1" y2="564.6"/>
			<polyline class="st7" points="319.2,564.6 312.3,564.6 312.3,557.7 			"/>
			<line class="st8" x1="312.3" y1="543.9" x2="312.3" y2="330.1"/>
			<polyline class="st7" points="312.3,323.2 312.3,316.3 319.2,316.3 			"/>
			<line class="st8" x1="333" y1="316.3" x2="546.8" y2="316.3"/>
			<polyline class="st7" points="553.7,316.3 560.6,316.3 560.6,323.2 			"/>
			<line class="st8" x1="560.6" y1="337" x2="560.6" y2="550.8"/>
		</g>
	</g>
	<rect x="85.8" y="88.7" class="st11" width="453.7" height="453.7"/>
	<rect x="22.6" y="26.6" class="st12" width="575.4" height="575.4"/>
	<line class="st12" x1="22.6" y1="26.6" x2="598" y2="602"/>
	<line class="st12" x1="598" y1="26.6" x2="22.6" y2="602"/>
</g>
<g id="X">
</g>
</svg>
