<?xml version="1.0" encoding="utf-8"?>
<!-- Generator: Adobe Illustrator 24.2.1, SVG Export Plug-In . SVG Version: 6.00 Build 0)  -->
<svg version="1.1" xmlns="http://www.w3.org/2000/svg" xmlns:xlink="http://www.w3.org/1999/xlink" x="0px" y="0px"
	 viewBox="0 0 396 63.6" style="enable-background:new 0 0 396 63.6;" xml:space="preserve">
<style type="text/css">
	.st0{fill:#F4F4F4;fill-opacity:0;}
	.st1{display:none;}
	.st2{display:inline;opacity:0.61;fill:#009640;}
	.st3{fill:#EFEFEF;}
	.st4{opacity:0.61;fill:#FFFFFF;stroke:#14080E;stroke-width:2.1636;stroke-miterlimit:10;stroke-dasharray:12.9816;}
	.st5{fill:none;stroke:#14080E;stroke-width:2.2991;stroke-miterlimit:10;stroke-dasharray:13.6861,13.6861;}
	.st6{fill:none;stroke:#808BC5;stroke-width:0.9134;stroke-miterlimit:10;stroke-dasharray:10.9609;}
	.st7{fill:none;stroke:#808BC5;stroke-width:1.1496;stroke-miterlimit:10;}
	.st8{fill:none;stroke:#808BC5;stroke-width:1.1496;stroke-miterlimit:10;stroke-dasharray:13.7948,13.7948;}
	.st9{fill:none;stroke:#808BC5;stroke-width:0.7664;stroke-miterlimit:10;}
	.st10{fill:none;stroke:#808BC5;stroke-width:0.7664;stroke-miterlimit:10;stroke-dasharray:9.1965,9.1965;}
	.st11{fill:none;stroke:#808BC5;stroke-width:0.7088;stroke-miterlimit:10;stroke-dasharray:8.5061;}
	.st12{fill:none;stroke:#808BC5;stroke-width:0.899;stroke-miterlimit:10;stroke-dasharray:10.7882;}
</style>
<g id="Layer_7">
</g>
<g id="leaf" class="st1">
</g>
<g id="bg">
</g>
<g id="type">
	<g>
		<path d="M5,3.3c0-0.5,0.4-0.8,0.8-0.8s0.8,0.3,0.8,0.8v3.2c0,0.5-0.3,0.8-0.8,0.8S5,7,5,6.6V3.3z M5,9.9c0-0.5,0.4-0.8,0.8-0.8
			s0.8,0.4,0.8,0.8v3.3c0,0.4-0.3,0.8-0.8,0.8S5,13.6,5,13.2V9.9z M5,16.5c0-0.5,0.4-0.8,0.8-0.8s0.8,0.3,0.8,0.8v3.2
			c0,0.5-0.3,0.8-0.8,0.8S5,20.2,5,19.8V16.5z M5,23.1c0-0.5,0.4-0.8,0.8-0.8s0.8,0.3,0.8,0.8v3.3c0,0.4-0.3,0.8-0.8,0.8
			S5,26.8,5,26.4V23.1z M5,29.6c0-0.5,0.4-0.8,0.8-0.8s0.8,0.3,0.8,0.8v3.3c0,0.5-0.3,0.8-0.8,0.8S5,33.4,5,32.9V29.6z M5,36.3
			c0-0.5,0.4-0.8,0.8-0.8s0.8,0.3,0.8,0.8v3.3c0,0.4-0.3,0.8-0.8,0.8S5,40,5,39.6V36.3z M6,47.9c-0.5,0-0.8-0.3-0.8-0.8
			c0-0.1,0-0.3,0.1-0.3C5.1,46.6,5,46.4,5,46.1v-3.3C5,42.4,5.4,42,5.9,42s0.8,0.3,0.8,0.8v3.3c0,0.1-0.1,0.1-0.1,0.2h2.7
			c0.4,0,0.8,0.4,0.8,0.8c0,0.5-0.5,0.8-0.8,0.8H6z M12.6,47.9c-0.5,0-0.8-0.3-0.8-0.8c0-0.4,0.3-0.8,0.8-0.8h3.2
			c0.5,0,0.8,0.4,0.8,0.8c0,0.5-0.4,0.8-0.8,0.8H12.6z M19.2,47.9c-0.5,0-0.8-0.3-0.8-0.8c0-0.4,0.4-0.8,0.8-0.8h3.3
			c0.4,0,0.8,0.4,0.8,0.8c0,0.5-0.5,0.8-0.8,0.8H19.2z M25.8,47.9c-0.5,0-0.8-0.3-0.8-0.8c0-0.4,0.3-0.8,0.8-0.8H29
			c0.5,0,0.8,0.4,0.8,0.8c0,0.5-0.4,0.8-0.8,0.8H25.8z"/>
		<path d="M38.7,32c0-1,0.1-2,0.3-3c0.1-0.4,0.5-0.8,0.9-0.7c0.5,0.1,0.7,0.5,0.6,1c-0.1,0.9-0.3,1.8-0.3,2.7c0,0.2,0,0.3,0,0.3
			c0,0.5-0.3,0.9-0.7,0.9c-0.1,0-0.1,0-0.1,0c-0.5,0-0.8-0.4-0.8-0.8C38.7,32.3,38.7,32.2,38.7,32z M39.1,35.9
			c-0.1-0.5,0.3-0.8,0.6-1c0.4-0.2,0.9,0.1,1,0.6c0.3,1,0.6,2,1,2.9c0.3,0.4,0,0.9-0.4,1c-0.1,0.1-0.1,0.1-0.3,0.1
			c-0.3,0-0.5-0.2-0.7-0.5C39.8,38.1,39.4,37,39.1,35.9z M40,25.7c0.5-1,1-2.1,1.6-3c0.3-0.5,0.8-0.5,1.2-0.3
			c0.4,0.3,0.5,0.7,0.2,1.2c-0.5,0.8-1,1.7-1.4,2.7c-0.2,0.3-0.5,0.6-0.8,0.6c-0.1,0-0.3-0.1-0.3-0.1C40,26.6,39.8,26.2,40,25.7z
			 M42.1,42c-0.4-0.3-0.3-0.8,0.1-1.1c0.3-0.3,0.8-0.2,1.1,0.1c0.6,0.8,1.4,1.6,2.1,2.3c0.3,0.2,0.3,0.7,0.1,1.1
			c-0.2,0.1-0.5,0.3-0.7,0.3c-0.1,0-0.3-0.1-0.5-0.1C43.5,43.8,42.7,43,42.1,42z M43.8,20.2c0.8-0.8,1.8-1.5,2.8-2.1
			c0.3-0.2,0.9-0.1,1,0.3c0.3,0.4,0.1,0.9-0.3,1.2c-0.9,0.5-1.7,1.1-2.5,1.8c-0.1,0.2-0.3,0.3-0.5,0.3c-0.3,0-0.5-0.1-0.6-0.3
			C43.5,20.9,43.5,20.5,43.8,20.2z M47.3,46.4c-0.5-0.2-0.6-0.6-0.5-1c0.3-0.4,0.8-0.6,1.2-0.4c0.9,0.5,1.9,0.8,2.9,1
			c0.5,0.1,0.8,0.5,0.6,1c-0.1,0.4-0.5,0.6-0.8,0.6c-0.1,0-0.2,0-0.2,0C49.4,47.3,48.3,47,47.3,46.4z M49.8,16.7
			c1-0.3,2.2-0.5,3.4-0.6c0.5,0,0.8,0.3,0.8,0.8c0,0.5-0.3,0.8-0.8,0.8c-1,0.1-2,0.3-3,0.5c-0.1,0.1-0.2,0.1-0.2,0.1
			c-0.3,0-0.7-0.3-0.8-0.6C49.1,17.3,49.3,16.8,49.8,16.7z M53.9,46.3c1,0,2.1-0.1,3.1-0.4c0.5-0.1,0.8,0.1,1,0.6
			c0,0.5-0.2,0.8-0.6,1c-1.2,0.2-2.3,0.4-3.4,0.4c-0.5,0-0.8-0.3-0.8-0.8C53.1,46.7,53.5,46.3,53.9,46.3z M56.4,18
			c-0.5-0.1-0.8-0.5-0.7-0.9c0.1-0.5,0.5-0.7,1-0.6c1.2,0.3,2.2,0.6,3.3,1.1c0.4,0.2,0.5,0.7,0.3,1.1c-0.1,0.3-0.5,0.5-0.7,0.5
			c-0.1,0-0.3,0-0.3-0.1C58.3,18.6,57.3,18.3,56.4,18z M59.8,44.8c0.9-0.5,1.8-1,2.5-1.8c0.3-0.3,0.9-0.2,1.2,0.1
			c0.3,0.3,0.3,0.8-0.1,1.1c-0.8,0.8-1.8,1.4-2.7,1.9c-0.2,0.1-0.3,0.1-0.5,0.1c-0.2,0-0.6-0.1-0.7-0.4C59.2,45.5,59.4,45,59.8,44.8
			z M61.8,20.6c-0.3-0.3-0.5-0.7-0.2-1.1c0.3-0.4,0.8-0.4,1.1-0.1c0.9,0.6,1.8,1.5,2.5,2.5c0.4,0.3,0.3,0.8-0.1,1.2
			c-0.1,0.1-0.4,0.1-0.6,0.1c-0.2,0-0.5-0.1-0.6-0.3C63.3,22,62.6,21.3,61.8,20.6z M64.4,40.7c0.6-0.8,1.1-1.7,1.6-2.7
			c0.1-0.4,0.6-0.6,1-0.4c0.4,0.1,0.6,0.6,0.5,1c-0.5,1.1-1,2-1.7,3.1c-0.1,0.1-0.5,0.3-0.6,0.3s-0.3-0.1-0.5-0.2
			C64.2,41.6,64.1,41.1,64.4,40.7z M65.6,25.5c-0.2-0.5,0-0.9,0.3-1.1c0.5-0.3,0.9-0.1,1.2,0.3c0.5,1,0.9,2.1,1.2,3.2
			c0.1,0.5-0.2,0.9-0.6,1c-0.1,0-0.1,0-0.3,0c-0.3,0-0.6-0.3-0.7-0.6C66.4,27.3,66.1,26.3,65.6,25.5z M66.8,35.2
			c0.2-1,0.3-2.1,0.3-3.1c0-0.2,0-0.4,0-0.6c0-0.5,0.3-0.8,0.8-0.9c0.4,0,0.8,0.3,0.8,0.8c0,0.2,0,0.5,0,0.7c0,1.2-0.1,2.3-0.4,3.4
			c-0.1,0.4-0.4,0.6-0.8,0.6c0,0,0,0-0.1,0C67,36.1,66.8,35.5,66.8,35.2z"/>
		<path d="M79.3,32c0-1,0.1-2,0.3-3c0.1-0.4,0.5-0.8,0.9-0.7c0.5,0.1,0.7,0.5,0.6,1c-0.1,0.9-0.3,1.8-0.3,2.7c0,0.2,0,0.3,0,0.3
			c0,0.5-0.3,0.9-0.7,0.9c-0.1,0-0.1,0-0.1,0c-0.5,0-0.8-0.4-0.8-0.8C79.3,32.3,79.3,32.2,79.3,32z M79.7,35.9
			c-0.1-0.5,0.3-0.8,0.6-1c0.4-0.2,0.9,0.1,1,0.6c0.3,1,0.6,2,1,2.9c0.3,0.4,0,0.9-0.4,1c-0.1,0.1-0.1,0.1-0.3,0.1
			c-0.3,0-0.5-0.2-0.7-0.5C80.3,38.1,80,37,79.7,35.9z M80.5,25.7c0.5-1,1-2.1,1.6-3c0.3-0.5,0.8-0.5,1.2-0.3
			c0.4,0.3,0.5,0.7,0.2,1.2c-0.5,0.8-1,1.7-1.4,2.7c-0.2,0.3-0.5,0.6-0.8,0.6c-0.1,0-0.3-0.1-0.3-0.1C80.6,26.6,80.3,26.2,80.5,25.7
			z M82.7,42c-0.4-0.3-0.3-0.8,0.1-1.1c0.3-0.3,0.8-0.2,1.1,0.1c0.6,0.8,1.4,1.6,2.1,2.3c0.3,0.2,0.3,0.7,0.1,1.1
			c-0.2,0.1-0.5,0.3-0.7,0.3c-0.1,0-0.3-0.1-0.5-0.1C84.1,43.8,83.3,43,82.7,42z M84.4,20.2c0.8-0.8,1.8-1.5,2.8-2.1
			c0.3-0.2,0.9-0.1,1,0.3c0.3,0.4,0.1,0.9-0.3,1.2c-0.9,0.5-1.7,1.1-2.5,1.8c-0.1,0.2-0.3,0.3-0.5,0.3c-0.3,0-0.5-0.1-0.6-0.3
			C84.1,20.9,84.1,20.5,84.4,20.2z M87.9,46.4c-0.5-0.2-0.6-0.6-0.5-1c0.3-0.4,0.8-0.6,1.2-0.4c0.9,0.5,1.9,0.8,2.9,1
			c0.5,0.1,0.8,0.5,0.6,1c-0.1,0.4-0.5,0.6-0.8,0.6c-0.1,0-0.2,0-0.2,0C90,47.3,88.9,47,87.9,46.4z M90.4,16.7
			c1-0.3,2.2-0.5,3.4-0.6c0.5,0,0.8,0.3,0.8,0.8c0,0.5-0.3,0.8-0.8,0.8c-1,0.1-2,0.3-3,0.5c-0.1,0.1-0.2,0.1-0.2,0.1
			c-0.3,0-0.7-0.3-0.8-0.6C89.7,17.3,89.9,16.8,90.4,16.7z M94.5,46.3c1,0,2.1-0.1,3.1-0.4c0.5-0.1,0.8,0.1,1,0.6
			c0,0.5-0.2,0.8-0.6,1c-1.2,0.2-2.3,0.4-3.4,0.4c-0.5,0-0.8-0.3-0.8-0.8C93.7,46.7,94,46.3,94.5,46.3z M97,18
			c-0.5-0.1-0.8-0.5-0.7-0.9c0.1-0.5,0.5-0.7,1-0.6c1.2,0.3,2.2,0.6,3.3,1.1c0.4,0.2,0.5,0.7,0.3,1.1c-0.1,0.3-0.5,0.5-0.7,0.5
			c-0.1,0-0.3,0-0.3-0.1C98.9,18.6,97.9,18.3,97,18z M100.3,44.8c0.9-0.5,1.8-1,2.5-1.8c0.3-0.3,0.9-0.2,1.2,0.1
			c0.3,0.3,0.3,0.8-0.1,1.1c-0.8,0.8-1.8,1.4-2.7,1.9c-0.2,0.1-0.3,0.1-0.5,0.1c-0.2,0-0.6-0.1-0.7-0.4C99.8,45.5,100,45,100.3,44.8
			z M102.4,20.6c-0.3-0.3-0.5-0.7-0.2-1.1c0.3-0.4,0.8-0.4,1.1-0.1c0.9,0.6,1.8,1.5,2.5,2.5c0.4,0.3,0.3,0.8-0.1,1.2
			c-0.1,0.1-0.4,0.1-0.6,0.1c-0.2,0-0.5-0.1-0.6-0.3C103.9,22,103.2,21.3,102.4,20.6z M105,40.7c0.6-0.8,1.1-1.7,1.6-2.7
			c0.1-0.4,0.6-0.6,1-0.4c0.4,0.1,0.6,0.6,0.5,1c-0.5,1.1-1,2-1.7,3.1c-0.1,0.1-0.5,0.3-0.6,0.3s-0.3-0.1-0.5-0.2
			C104.8,41.6,104.7,41.1,105,40.7z M106.2,25.5c-0.2-0.5,0-0.9,0.3-1.1c0.5-0.3,0.9-0.1,1.2,0.3c0.5,1,0.9,2.1,1.2,3.2
			c0.1,0.5-0.2,0.9-0.6,1c-0.1,0-0.1,0-0.3,0c-0.3,0-0.6-0.3-0.7-0.6C107,27.3,106.6,26.3,106.2,25.5z M107.4,35.2
			c0.2-1,0.3-2.1,0.3-3.1c0-0.2,0-0.4,0-0.6c0-0.5,0.3-0.8,0.8-0.9c0.4,0,0.8,0.3,0.8,0.8c0,0.2,0,0.5,0,0.7c0,1.2-0.1,2.3-0.4,3.4
			c-0.1,0.4-0.4,0.6-0.8,0.6c0,0,0,0-0.1,0C107.6,36.1,107.4,35.5,107.4,35.2z"/>
		<path d="M121.4,18.5c0-0.5,0.4-0.8,0.8-0.8s0.8,0.4,0.8,0.8v3.3c0,0.4-0.3,0.8-0.8,0.8s-0.8-0.4-0.8-0.8V18.5z M123,27v1.3
			c0,0.4-0.3,0.8-0.8,0.8s-0.8-0.5-0.8-0.8V25c0-0.5,0.4-0.8,0.8-0.8s0.8,0.3,0.8,0.8v0.4c0.2-0.3,0.6-0.4,0.9-0.2
			c0.5,0.1,0.6,0.6,0.5,1c-0.1,0.2-0.2,0.3-0.2,0.5c-0.1,0.3-0.5,0.5-0.7,0.5s-0.3,0-0.3-0.1C123.1,27.1,123,27.1,123,27z
			 M121.4,31.6c0-0.5,0.4-0.8,0.8-0.8s0.8,0.3,0.8,0.8v3.2c0,0.5-0.3,0.8-0.8,0.8s-0.8-0.4-0.8-0.8V31.6z M123,39.2v2.3
			c0,0.4-0.3,0.8-0.8,0.8s-0.8-0.4-0.8-0.8v-3.3c0-0.5,0.4-0.8,0.8-0.8c0.3,0,0.5,0.1,0.6,0.3c0.1-0.1,0.2-0.1,0.3-0.2
			c0.4-0.2,0.9,0,1,0.4c0.4,1,1,1.9,1.6,2.7c0.3,0.4,0.2,0.9-0.1,1.1c-0.2,0.1-0.4,0.2-0.5,0.2c-0.3,0-0.5-0.1-0.6-0.3
			C123.8,40.9,123.4,40.1,123,39.2z M121.4,44.8c0-0.5,0.4-0.8,0.8-0.8s0.8,0.3,0.8,0.8v3.3c0,0.4-0.3,0.8-0.8,0.8s-0.8-0.4-0.8-0.8
			V44.8z M121.4,51.3c0-0.5,0.4-0.8,0.8-0.8s0.8,0.3,0.8,0.8v3.3c0,0.4-0.3,0.8-0.8,0.8s-0.8-0.5-0.8-0.8V51.3z M121.4,57.9
			c0-0.5,0.4-0.8,0.8-0.8s0.8,0.3,0.8,0.8v3.2c0,0.5-0.3,0.8-0.8,0.8s-0.8-0.4-0.8-0.8V57.9z M124.6,22.6c0.8-0.9,1.6-1.7,2.4-2.5
			c0.4-0.3,0.9-0.2,1.2,0.1c0.3,0.3,0.3,0.9-0.1,1.1c-0.8,0.7-1.5,1.4-2.1,2.3c-0.2,0.1-0.5,0.3-0.7,0.3c-0.1,0-0.3,0-0.5-0.2
			C124.4,23.5,124.4,23,124.6,22.6z M126.7,44.1c-0.3-0.3-0.4-0.8-0.1-1.2s0.8-0.3,1.2-0.1c0.7,0.7,1.6,1.3,2.5,1.8
			c0.4,0.1,0.6,0.6,0.3,1c-0.1,0.3-0.4,0.5-0.7,0.5c-0.1,0-0.3-0.1-0.5-0.2C128.5,45.6,127.6,45,126.7,44.1z M130,18.2
			c1-0.6,2-1,3.2-1.2c0.5-0.1,0.9,0.2,1,0.6c0.2,0.5-0.1,0.9-0.6,1.1c-1,0.1-1.9,0.6-2.9,1c-0.1,0.1-0.3,0.1-0.4,0.1
			c-0.3,0-0.6-0.1-0.8-0.5C129.4,18.9,129.5,18.4,130,18.2z M132.8,47.4c-0.5-0.1-0.7-0.6-0.6-1c0.1-0.5,0.5-0.7,1-0.5
			c1,0.2,2,0.4,3.1,0.4c0.4,0,0.8,0.4,0.8,0.8s-0.5,0.8-0.8,0.8C135,47.9,133.9,47.6,132.8,47.4z M139.6,18.7
			c-1-0.3-1.9-0.5-3.1-0.5c-0.4,0-0.8-0.3-0.8-0.8s0.4-0.8,0.8-0.8c1.2,0,2.4,0.2,3.4,0.4c0.5,0.2,0.8,0.6,0.6,1
			c-0.1,0.4-0.4,0.6-0.7,0.6H139.6z M139.3,45.9c1-0.2,2.1-0.6,3-1c0.4-0.2,0.8,0,1,0.4c0.3,0.4,0,0.9-0.3,1
			c-1.1,0.5-2.1,0.9-3.3,1.2h-0.3c-0.3,0-0.6-0.3-0.7-0.6C138.6,46.5,138.9,46,139.3,45.9z M142.6,19.7c-0.5-0.3-0.6-0.7-0.5-1
			c0.3-0.5,0.8-0.6,1.2-0.5c1,0.6,1.9,1.2,2.9,2c0.3,0.2,0.3,0.8,0.1,1.1c-0.2,0.2-0.5,0.3-0.7,0.3c-0.1,0-0.3,0-0.5-0.1
			C144.3,20.8,143.5,20.2,142.6,19.7z M144.8,43.3c0.8-0.6,1.6-1.4,2.2-2.2c0.3-0.3,0.8-0.4,1.2-0.1c0.3,0.3,0.4,0.8,0.1,1.1
			c-0.7,0.9-1.6,1.8-2.5,2.5c-0.1,0.2-0.3,0.3-0.5,0.3c-0.3,0-0.5-0.1-0.7-0.3C144.5,44.1,144.5,43.5,144.8,43.3z M147.2,23.7
			c-0.2-0.4-0.1-0.9,0.2-1.2c0.4-0.3,0.9-0.2,1.2,0.2c0.7,0.9,1.3,1.9,1.8,3c0.1,0.4,0,0.8-0.5,1c-0.1,0.1-0.3,0.1-0.3,0.1
			c-0.3,0-0.6-0.1-0.8-0.5C148.3,25.5,147.9,24.6,147.2,23.7z M148.7,38.5c0.5-0.9,0.8-1.9,1-3c0.1-0.4,0.6-0.7,1-0.6
			c0.4,0.1,0.7,0.5,0.6,1c-0.3,1.2-0.6,2.3-1.2,3.2c-0.1,0.3-0.5,0.5-0.7,0.5c-0.2,0-0.3,0-0.5-0.1
			C148.6,39.4,148.4,38.9,148.7,38.5z M150.8,33.3c-0.4,0-0.8-0.4-0.7-0.8v-0.1c0-1.1-0.2-2-0.3-3c-0.1-0.4,0.1-0.9,0.6-1
			c0.4-0.1,0.8,0.3,1,0.6c0.2,1.1,0.3,2.1,0.3,3.3v0.1C151.6,32.9,151.3,33.3,150.8,33.3L150.8,33.3z"/>
		<path d="M162.9,25.6c0-0.5,0.3-0.8,0.8-0.9c0.4,0,0.8,0.5,0.8,0.8c0,1,0.2,2.1,0.3,3.1c0.1,0.5-0.2,0.9-0.6,1h-0.1
			c-0.5,0-0.8-0.3-0.8-0.6C163.1,27.9,162.9,26.8,162.9,25.6z M163.1,22.1c0.1-1.2,0.4-2.3,0.6-3.4c0.1-0.5,0.6-0.7,1-0.6
			c0.5,0.1,0.7,0.6,0.6,1c-0.3,1-0.6,2.1-0.7,3.2c-0.1,0.4-0.4,0.7-0.8,0.7c0,0-0.1,0-0.1-0.1C163.3,23,163,22.6,163.1,22.1z
			 M164.2,32.3c-0.2-0.4,0.1-0.9,0.5-1.1c0.5-0.1,1,0.1,1.1,0.6c0.3,1,0.8,1.9,1.2,3c0.3,0.4,0.1,0.9-0.3,1
			c-0.1,0.1-0.3,0.1-0.4,0.1c-0.3,0-0.6-0.1-0.6-0.4C165,34.5,164.6,33.4,164.2,32.3z M165,15.5c0.5-1.1,1-2.1,1.7-3
			c0.3-0.4,0.7-0.5,1.2-0.3c0.4,0.3,0.5,0.8,0.3,1.2c-0.6,0.8-1.2,1.8-1.6,2.8c-0.2,0.3-0.5,0.5-0.8,0.5c-0.1,0-0.3,0-0.3-0.1
			C165,16.5,164.8,15.9,165,15.5z M167.4,38.4c-0.3-0.3-0.2-0.9,0.2-1.1c0.3-0.3,0.8-0.3,1.2,0.1c0.6,0.8,1.4,1.7,2.1,2.4
			c0.4,0.3,0.4,0.8,0,1.2c-0.1,0.1-0.4,0.3-0.5,0.3c-0.3,0-0.5-0.1-0.6-0.3C168.9,40.2,168.1,39.3,167.4,38.4z M168.8,9.7
			c0.8-0.8,1.7-1.6,2.5-2.4c0.4-0.2,0.9-0.2,1.2,0.2c0.3,0.3,0.1,0.8-0.1,1.2c-0.8,0.6-1.6,1.4-2.3,2.1c-0.2,0.1-0.3,0.3-0.6,0.3
			c-0.3,0-0.5-0.1-0.6-0.3C168.5,10.5,168.5,10,168.8,9.7z M172.3,43.3c-0.3-0.3-0.4-0.7-0.2-1.2c0.3-0.3,0.8-0.4,1.2-0.1
			c0.9,0.6,1.8,1.2,2.8,1.7c0.4,0.3,0.5,0.8,0.3,1.1c-0.1,0.3-0.4,0.5-0.7,0.5c-0.2,0-0.3-0.1-0.5-0.1
			C174.2,44.6,173.2,44,172.3,43.3z M174.2,5.3c1-0.6,1.9-1,3.1-1.6c0.4-0.2,1,0.1,1.1,0.5c0.2,0.4,0,0.8-0.5,1
			c-1,0.4-1.9,0.9-2.8,1.4c-0.2,0.1-0.3,0.1-0.5,0.1c-0.3,0-0.5-0.1-0.6-0.4C173.6,6,173.8,5.5,174.2,5.3z M181.7,47.6
			c-1.1-0.3-2.2-0.6-3.2-1c-0.5-0.1-0.8-0.5-0.6-1c0.3-0.5,0.7-0.6,1.1-0.5c1,0.3,2,0.5,3.1,0.8c0.5,0.1,0.8,0.5,0.7,1
			c-0.1,0.3-0.5,0.6-0.8,0.6H181.7z M180.5,2.6c1.1-0.2,2.3-0.5,3.4-0.5c0.5-0.1,0.8,0.2,0.9,0.8c0.1,0.4-0.3,0.8-0.7,0.9
			c-1.1,0.1-2.1,0.3-3.1,0.6h-0.2c-0.4,0-0.7-0.3-0.8-0.6C179.8,3.2,180.1,2.8,180.5,2.6z M185.1,47.9c-0.4,0-0.8-0.4-0.7-0.9
			c0-0.4,0.4-0.7,0.8-0.7h3.2c0.4-0.1,0.8,0.2,0.9,0.7c0,0.4-0.3,0.8-0.8,0.8c-0.6,0.1-1.2,0.1-2,0.1H185.1z M186.2,26.8
			c-0.5,0-0.8-0.3-0.8-0.8c0-0.4,0.4-0.8,0.8-0.8h3.4c0.5,0,0.8,0.4,0.8,0.8c0,0.5-0.3,0.8-0.8,0.8H186.2z M190.4,3.9
			c-1-0.1-2-0.3-3.1-0.3c-0.5,0-0.8-0.4-0.8-0.8c0-0.6,0.5-0.9,0.8-0.9c1.2,0,2.3,0.2,3.4,0.3c0.6,0.1,0.9,0.6,0.8,1
			c-0.1,0.5-0.5,0.6-0.9,0.6H190.4z M191.6,45.7c1.1-0.3,2.1-0.6,3.1-1c0.4-0.2,1,0.1,1.2,0.5c0.1,0.5-0.1,1-0.5,1.2
			c-1.1,0.4-2.2,0.7-3.4,1h-0.1c-0.5,0-0.8-0.3-0.9-0.6C190.9,46.3,191.2,45.9,191.6,45.7z M192.9,26.8c-0.4,0-0.8-0.3-0.8-0.8
			c0-0.4,0.4-0.8,0.8-0.8h3.4c0.5,0,0.8,0.4,0.8,0.8c0,0.5-0.3,0.8-0.8,0.8H192.9z M193.5,4.6c-0.4-0.1-0.6-0.6-0.5-1
			c0.1-0.5,0.6-0.7,1-0.6c1.1,0.4,2.2,0.8,3.2,1.3c0.5,0.2,0.6,0.6,0.5,1.1c-0.2,0.3-0.5,0.5-0.8,0.5c-0.1,0-0.2,0-0.4-0.1
			C195.7,5.4,194.6,5,193.5,4.6z M197.7,43.5c0.7-0.5,1.5-0.9,2.3-1.5v-2.7c0-0.4,0.4-0.8,0.8-0.8c0.5,0,0.8,0.5,0.8,0.8v3v0.2
			c-0.1,0.2-0.2,0.4-0.3,0.5c-0.9,0.7-1.9,1.4-2.9,1.9c-0.1,0.1-0.3,0.2-0.4,0.2c-0.3,0-0.5-0.2-0.7-0.5
			C197.1,44.2,197.2,43.7,197.7,43.5z M200,26.8h-0.5c-0.5,0-0.8-0.3-0.8-0.8c0-0.4,0.4-0.8,0.8-0.8h1.1h0.1h0.1
			c0.5,0,0.8,0.4,0.8,0.8v3.3c0,0.5-0.3,0.8-0.8,0.8c-0.5,0-0.8-0.3-0.8-0.8V26.8z M199.3,7.5c-0.3-0.3-0.4-0.8-0.2-1.2
			c0.3-0.3,0.8-0.4,1.2-0.1c0.3,0.2,0.6,0.5,1,0.7c0.5,0.4,0.5,0.9,0.2,1.2c-0.2,0.3-0.4,0.3-0.6,0.3c-0.2,0-0.3-0.1-0.5-0.2
			C200,8,199.7,7.8,199.3,7.5z M200,32.6c0-0.5,0.4-0.8,0.8-0.8c0.5,0,0.8,0.4,0.8,0.8v3.3c0,0.5-0.3,0.8-0.8,0.8
			c-0.5,0-0.8-0.3-0.8-0.8V32.6z"/>
		<path d="M215.2,34.8c-0.4,0-0.7-0.3-0.8-0.7c-0.1-0.6-0.1-1.4-0.1-2c0-0.5,0-1,0-1.4c0.1-0.4,0.5-0.8,0.9-0.8
			c0.5,0.1,0.8,0.5,0.7,0.9c0,0.4,0,0.8,0,1.3c0,0.6,0,1.2,0.1,1.8C216.1,34.2,215.7,34.6,215.2,34.8L215.2,34.8z M215,27.2
			c0.3-1.1,0.8-2.1,1.3-3.2c0.3-0.4,0.7-0.5,1.2-0.4c0.4,0.3,0.5,0.8,0.3,1.2c-0.5,0.8-0.9,1.8-1.2,2.9c-0.1,0.3-0.4,0.5-0.8,0.5
			c0,0-0.1,0-0.2,0C215.2,28.1,214.9,27.6,215,27.2z M218,39.6c0.2,0.5,0.1,0.9-0.3,1.2c-0.2,0.1-0.3,0.1-0.5,0.1
			c-0.3,0-0.5-0.1-0.7-0.3c-0.5-1-1-2-1.4-3.2c-0.1-0.4,0.1-0.9,0.6-1c0.4-0.1,0.8,0.1,0.9,0.5C217,37.9,217.5,38.9,218,39.6z
			 M218.9,22.6c-0.3,0-0.5,0-0.6-0.1c-0.3-0.4-0.3-0.8-0.1-1.2c0.8-0.9,1.7-1.7,2.6-2.4c0.4-0.2,0.9-0.1,1.1,0.2
			c0.3,0.4,0.2,0.9-0.1,1.1c-0.8,0.6-1.6,1.4-2.3,2.1C219.3,22.5,219.1,22.6,218.9,22.6z M222.2,44.2c0.5,0.3,0.5,0.7,0.3,1.1
			c-0.1,0.3-0.5,0.4-0.6,0.4c-0.2,0-0.3,0-0.5-0.2c-0.9-0.6-1.8-1.4-2.6-2.2c-0.3-0.3-0.3-0.8,0.1-1.2s0.8-0.3,1.2,0
			C220.5,42.9,221.4,43.6,222.2,44.2z M224.1,18.8c-0.3,0-0.6-0.3-0.7-0.5c-0.3-0.5,0-0.9,0.4-1.2c1.1-0.5,2.1-0.8,3.4-0.9
			c0.5-0.1,0.8,0.3,0.9,0.6c0.1,0.5-0.3,0.9-0.6,1c-1,0.2-2.1,0.5-3,0.8C224.3,18.7,224.2,18.8,224.1,18.8z M228.7,47.2
			c-0.1,0.4-0.5,0.7-0.8,0.7h-0.1c-1.2-0.2-2.3-0.4-3.4-0.8c-0.4-0.1-0.6-0.6-0.5-1c0.1-0.4,0.6-0.6,1-0.5c0.9,0.3,1.9,0.5,3,0.7
			C228.4,46.3,228.7,46.7,228.7,47.2z M230.4,17.8c-0.4,0-0.7-0.5-0.7-0.8c0.1-0.5,0.4-0.8,0.9-0.8c1.1,0.2,2.3,0.5,3.4,0.8
			c0.5,0.1,0.6,0.6,0.5,1c-0.1,0.3-0.5,0.6-0.8,0.6c-0.1,0-0.2-0.1-0.3-0.1C232.5,18.1,231.5,17.8,230.4,17.8z M235,46
			c0.2,0.4-0.1,0.9-0.5,1c-1,0.4-2.1,0.6-3.3,0.8h-0.1c-0.5,0-0.8-0.3-0.8-0.6c-0.1-0.5,0.2-0.9,0.7-1c1-0.1,1.9-0.3,3-0.7
			C234.4,45.3,234.9,45.6,235,46z M238.6,21.6c-0.7-0.7-1.6-1.4-2.3-1.9c-0.5-0.3-0.5-0.7-0.3-1c0.3-0.5,0.8-0.5,1-0.3
			c1,0.6,1.9,1.4,2.7,2.1c0.3,0.3,0.3,0.8,0,1.2c-0.1,0.2-0.3,0.3-0.6,0.3C239,21.9,238.8,21.8,238.6,21.6z M240.2,42
			c0.3,0.3,0.3,0.8,0,1.2c-0.8,0.9-1.6,1.6-2.7,2.3c-0.1,0.1-0.2,0.2-0.4,0.2c-0.3,0-0.6-0.2-0.6-0.5c-0.4-0.3-0.2-0.8,0.1-1.1
			c0.8-0.6,1.6-1.2,2.3-2C239.3,41.7,239.8,41.6,240.2,42z M244.4,23.5v3.2c0,0.5-0.4,0.8-0.8,0.8c-0.2,0-0.4-0.1-0.5-0.2
			c-0.1,0-0.1,0-0.1,0c-0.1,0-0.3,0-0.3,0c-0.4,0-0.7-0.1-0.8-0.5c-0.5-1-0.8-2-1.4-2.8c-0.3-0.5-0.1-0.9,0.2-1.2
			c0.4-0.2,0.9-0.1,1.2,0.3c0.3,0.5,0.6,1.1,0.9,1.6v-1.3c0-0.5,0.3-0.8,0.8-0.8C244.1,22.6,244.4,22.9,244.4,23.5z M244.4,36.6v3.2
			c0,0.5-0.4,0.8-0.8,0.8c-0.5,0-0.8-0.4-0.8-0.8v-0.6c-0.1,0.3-0.5,0.7-0.6,1.1c-0.1,0.2-0.4,0.4-0.8,0.4c0,0-0.2,0-0.4-0.1
			c-0.3-0.3-0.5-0.7-0.2-1.2c0.5-0.9,0.9-1.8,1.2-2.8c0.1-0.4,0.5-0.6,0.8-0.6c0.2-0.3,0.4-0.4,0.7-0.4
			C244.1,35.7,244.4,36.1,244.4,36.6z M244.4,16.9v3.2c0,0.5-0.4,0.8-0.8,0.8c-0.5,0-0.8-0.4-0.8-0.8v-3.2c0-0.5,0.3-0.8,0.8-0.8
			C244.1,16.1,244.4,16.4,244.4,16.9z M244.4,30v3.2c0,0.5-0.4,0.8-0.8,0.8c-0.5,0-0.8-0.4-0.8-0.8V30c0-0.5,0.3-0.8,0.8-0.8
			C244.1,29.2,244.4,29.5,244.4,30z M244.4,43.1v3.2c0,0.4-0.4,0.8-0.8,0.8c-0.5,0-0.8-0.5-0.8-0.8v-3.2c0-0.5,0.3-0.8,0.8-0.8
			C244.1,42.3,244.4,42.6,244.4,43.1z"/>
		<path d="M258,16.9c0-0.4,0.3-0.8,0.8-0.8c0.4,0,0.8,0.5,0.8,0.8v3.4c0,0.5-0.5,0.8-0.8,0.8c-0.5,0-0.8-0.3-0.8-0.8V16.9z
			 M258,23.7c0-0.5,0.3-0.9,0.8-0.9c0.4,0,0.8,0.5,0.8,0.9V27c0,0.5-0.5,0.8-0.8,0.8c-0.5,0-0.8-0.3-0.8-0.8V23.7z M258,32.3
			L258,32.3v-1.9c0-0.5,0.3-0.8,0.8-0.8h0.1c0.1-0.1,0.2-0.3,0.3-0.5c0.1-0.5,0.6-0.6,1-0.5c0.5,0.1,0.6,0.6,0.5,1.1
			c-0.6,1.4-1,2.4-1.1,2.8v1.3c0,0.5-0.5,0.8-0.8,0.8c-0.5,0-0.8-0.3-0.8-0.8V32.3z M258,37c0-0.5,0.3-0.8,0.8-0.8
			c0.4,0,0.8,0.4,0.8,0.8v3.4c0,0.5-0.5,0.8-0.8,0.8c-0.5,0-0.8-0.4-0.8-0.8V37z M258,43.8c0-0.5,0.3-0.9,0.8-0.9
			c0.4,0,0.8,0.5,0.8,0.9v3.3c0,0.5-0.5,0.8-0.8,0.8c-0.5,0-0.8-0.3-0.8-0.8V43.8z M260.7,25.9c0.6-1,1.2-2.1,1.9-3
			c0.3-0.4,0.8-0.5,1.2-0.2c0.3,0.3,0.5,0.8,0.2,1.2c-0.6,0.9-1.2,1.8-1.8,2.7c-0.2,0.3-0.4,0.5-0.8,0.5c-0.1,0-0.3-0.1-0.4-0.2
			C260.6,26.8,260.5,26.3,260.7,25.9z M264.8,20.3c0.8-0.7,1.8-1.5,2.8-2.2c0.4-0.1,0.9-0.1,1.2,0.4c0.3,0.3,0.1,0.9-0.3,1.1
			c-0.9,0.5-1.8,1.2-2.5,2c-0.1,0.1-0.5,0.2-0.6,0.2c-0.3,0-0.4-0.1-0.6-0.2C264.5,21.2,264.5,20.6,264.8,20.3z M270.9,16.7
			c1.1-0.3,2.3-0.5,3.5-0.6c0.5,0,0.8,0.5,0.8,0.8c0,0.5-0.3,0.8-0.8,0.8c-1,0.1-2.1,0.3-3.1,0.5c0,0-0.1,0.1-0.2,0.1
			c-0.4,0-0.8-0.3-0.8-0.6C270.2,17.3,270.4,16.8,270.9,16.7z"/>
		<path d="M282.7,32.3v-0.1c0-0.5,0.4-0.8,0.8-0.8c0.5,0,0.8,0.3,0.8,0.8v0.1c0,1,0.2,1.9,0.3,2.9c0.1,0.5-0.2,0.9-0.6,1h-0.1
			c-0.5,0-0.8-0.3-0.8-0.6C282.9,34.5,282.7,33.4,282.7,32.3z M283.7,29.6c-0.5-0.1-0.7-0.5-0.6-1c0.3-1.1,0.6-2.2,1.2-3.2
			c0.2-0.5,0.6-0.6,1.1-0.5c0.4,0.3,0.6,0.8,0.4,1.2c-0.4,0.9-0.7,1.9-1,2.9c-0.1,0.5-0.5,0.6-0.8,0.6H283.7z M284.1,38.9
			c-0.2-0.5,0-0.9,0.4-1.2c0.4-0.2,0.9,0,1,0.4c0.5,1,1,1.9,1.6,2.7c0.4,0.3,0.3,0.9-0.1,1.2c-0.1,0.1-0.3,0.1-0.5,0.1
			c-0.2,0-0.5-0.1-0.6-0.3C285.2,40.9,284.6,39.9,284.1,38.9z M286.1,22.4c0.7-0.9,1.6-1.8,2.5-2.5c0.3-0.3,0.8-0.3,1.2,0.1
			c0.3,0.3,0.3,0.8-0.2,1.2c-0.7,0.6-1.5,1.4-2.1,2.2c-0.1,0.2-0.4,0.3-0.6,0.3c-0.1,0-0.3,0-0.5-0.1
			C285.9,23.3,285.8,22.8,286.1,22.4z M288.2,44.4c-0.3-0.3-0.4-0.8-0.1-1.1c0.3-0.5,0.8-0.5,1.1-0.2c0.8,0.8,1.7,1.3,2.6,1.8
			c0.4,0.3,0.6,0.7,0.4,1.2c-0.1,0.2-0.5,0.4-0.7,0.4s-0.3,0-0.5-0.1C290.1,45.8,289.1,45.2,288.2,44.4z M291.4,18.1
			c1.1-0.6,2.1-0.9,3.3-1.2c0.5-0.1,0.9,0.2,1,0.6c0.1,0.5-0.1,0.9-0.6,1c-1,0.3-2,0.6-2.9,1.1c-0.1,0-0.3,0.1-0.3,0.1
			c-0.3,0-0.6-0.3-0.8-0.5C290.9,18.8,291,18.3,291.4,18.1z M294.4,47.6c-0.5-0.1-0.7-0.6-0.6-1c0.1-0.4,0.6-0.7,1-0.5
			c0.9,0.2,2,0.3,3.1,0.3c0.5,0,0.8,0.4,0.8,0.8c0,0.5-0.4,0.8-0.8,0.8C296.6,47.9,295.5,47.8,294.4,47.6z M301.2,18.7
			c-1-0.3-1.9-0.5-3.1-0.5c-0.5,0-0.8-0.4-0.8-0.8s0.4-0.8,0.8-0.8c1.2,0,2.4,0.2,3.5,0.5c0.5,0.1,0.7,0.5,0.6,1
			c-0.1,0.3-0.5,0.6-0.8,0.6H301.2z M300.9,46c1-0.3,2-0.6,2.9-1.1c0.4-0.1,0.9,0,1.1,0.3c0.2,0.4,0,0.9-0.4,1.2
			c-1,0.5-2.1,0.9-3.2,1.2c-0.1,0.1-0.2,0.1-0.3,0.1c-0.3,0-0.6-0.3-0.8-0.6C300.2,46.5,300.5,46.1,300.9,46z M304.1,19.9
			c-0.5-0.3-0.6-0.8-0.3-1.2c0.2-0.5,0.7-0.6,1-0.3c1.1,0.6,2.1,1.2,2.9,1.9c0.3,0.3,0.4,0.8,0.1,1.2c-0.2,0.3-0.5,0.3-0.6,0.3
			s-0.3-0.1-0.5-0.3C305.8,20.9,305,20.4,304.1,19.9z M306.4,43.1c0.8-0.6,1.5-1.4,2.1-2.2c0.3-0.3,0.8-0.4,1.2-0.1
			c0.3,0.2,0.4,0.8,0.1,1.1c-0.7,0.9-1.6,1.8-2.3,2.6c-0.2,0.1-0.5,0.1-0.6,0.1c-0.3,0-0.5-0.1-0.6-0.3C306,44,306,43.5,306.4,43.1z
			 M308.7,23.9c-0.3-0.3-0.2-0.8,0.1-1.2c0.5-0.3,0.9-0.2,1.2,0.3c0.5,0.7,1,1.5,1.4,2.3v-2.2c0-0.5,0.3-0.8,0.8-0.8
			s0.8,0.3,0.8,0.8v3.3c0,0.4-0.4,0.8-0.8,0.8c-0.3,0-0.5-0.1-0.6-0.3c-0.1,0.1-0.1,0.1-0.3,0.2c-0.1,0.1-0.3,0.1-0.3,0.1
			c-0.3,0-0.6-0.1-0.7-0.5C309.8,25.6,309.3,24.7,308.7,23.9z M311.5,39.2c-0.1,0.1-0.4,0.2-0.6,0.2c-0.1,0-0.3-0.1-0.3-0.1
			c-0.5-0.1-0.6-0.6-0.5-1c0.1-0.2,0.1-0.3,0.2-0.5c0.1-0.4,0.6-0.6,1-0.4c0,0,0.1,0.1,0.1,0.1v-1.2c0-0.5,0.3-0.8,0.8-0.8
			s0.8,0.3,0.8,0.8v3.3c0,0.4-0.4,0.8-0.8,0.8s-0.8-0.4-0.8-0.8V39.2z M311.5,3.3c0-0.5,0.3-0.8,0.8-0.8s0.8,0.3,0.8,0.8v3.2
			c0,0.5-0.4,0.8-0.8,0.8s-0.8-0.4-0.8-0.8V3.3z M311.5,9.9c0-0.5,0.3-0.8,0.8-0.8s0.8,0.4,0.8,0.8v3.3c0,0.4-0.4,0.8-0.8,0.8
			s-0.8-0.5-0.8-0.8V9.9z M311.5,16.5c0-0.5,0.3-0.8,0.8-0.8s0.8,0.3,0.8,0.8v3.2c0,0.5-0.4,0.8-0.8,0.8s-0.8-0.4-0.8-0.8V16.5z
			 M311.5,29.6c0-0.5,0.3-0.8,0.8-0.8s0.8,0.3,0.8,0.8v3.3c0,0.5-0.4,0.8-0.8,0.8s-0.8-0.4-0.8-0.8V29.6z M311.5,42.8
			c0-0.5,0.3-0.8,0.8-0.8s0.8,0.3,0.8,0.8v3.3c0,0.4-0.4,0.8-0.8,0.8s-0.8-0.5-0.8-0.8V42.8z"/>
		<path d="M325.9,31.8c-0.3,0-0.5-0.1-0.6-0.2c-0.5-0.1-0.8-0.5-0.8-0.9c0.1-1.2,0.3-2.3,0.6-3.3c0.1-0.5,0.6-0.7,1-0.6
			c0.4,0.1,0.6,0.6,0.5,1c-0.3,0.8-0.5,1.7-0.5,2.5h2.9c0.5,0,0.8,0.3,0.8,0.8s-0.3,0.8-0.8,0.8H325.9z M324.6,34.2
			c-0.1-0.5,0.2-0.9,0.7-0.9c0.4-0.1,0.8,0.3,0.8,0.6c0.1,1.1,0.4,2,0.7,3.1c0.1,0.4-0.1,0.8-0.5,1h-0.2c-0.3,0-0.7-0.2-0.8-0.5
			C325,36.5,324.8,35.3,324.6,34.2z M326.5,24.2c0.6-1.1,1.2-1.9,2-2.9c0.3-0.3,0.8-0.3,1.1-0.1c0.3,0.3,0.4,0.8,0.1,1.2
			c-0.6,0.7-1.2,1.6-1.8,2.5c0,0.3-0.4,0.5-0.6,0.5s-0.3-0.1-0.5-0.2C326.4,25.1,326.2,24.6,326.5,24.2z M326.9,40.6
			c-0.3-0.5-0.2-0.9,0.2-1.2c0.5-0.2,0.9-0.1,1.2,0.3c0.5,0.9,1.1,1.7,1.9,2.5c0.3,0.3,0.3,0.8-0.1,1.2c-0.1,0.1-0.3,0.2-0.5,0.2
			c-0.2,0-0.5-0.1-0.6-0.2C328.2,42.5,327.4,41.6,326.9,40.6z M331,19.1c0.9-0.7,1.9-1.2,3-1.8c0.4-0.2,0.9,0,1,0.4
			c0.2,0.5,0,0.9-0.4,1.1c-1,0.4-1.9,1-2.7,1.5c-0.1,0.1-0.3,0.2-0.5,0.2c-0.3,0-0.5-0.1-0.6-0.3C330.6,19.8,330.6,19.3,331,19.1z
			 M331.7,45.5c-0.5-0.2-0.5-0.7-0.3-1.1c0.3-0.5,0.7-0.5,1.2-0.3c0.8,0.6,1.6,1,2.7,1.4c0.4,0.2,0.6,0.7,0.5,1
			c-0.1,0.4-0.4,0.6-0.7,0.6c-0.1,0-0.1-0.1-0.3-0.1C333.6,46.6,332.6,46.2,331.7,45.5z M332.4,31.8c-0.5,0-0.8-0.3-0.8-0.8
			s0.4-0.8,0.8-0.8h3.2c0.5,0,0.8,0.3,0.8,0.8s-0.3,0.8-0.8,0.8H332.4z M337.2,16.4c0.9-0.1,1.7-0.3,2.6-0.3c0.3,0,0.6,0,0.8,0.1
			c0.5,0,0.8,0.4,0.8,0.8c-0.1,0.5-0.4,0.8-0.9,0.8c-0.2-0.1-0.5-0.1-0.7-0.1c-0.8,0-1.6,0.1-2.3,0.3h-0.2c-0.4,0-0.7-0.3-0.8-0.6
			C336.5,16.8,336.9,16.5,337.2,16.4z M337.4,47c0-0.5,0.4-0.8,0.8-0.8c0.5,0.1,1.1,0.1,1.6,0.1c0.5,0,1,0,1.4-0.1
			c0.5,0,0.8,0.3,0.8,0.8c0.1,0.5-0.2,0.9-0.6,0.9c-0.5,0.1-1,0.1-1.6,0.1c-0.6,0-1.2,0-1.9-0.1C337.6,47.8,337.2,47.4,337.4,47z
			 M338.9,31.8c-0.4,0-0.8-0.3-0.8-0.8s0.4-0.8,0.8-0.8h3.2c0.5,0,0.8,0.3,0.8,0.8s-0.3,0.8-0.8,0.8H338.9z M343.6,18.3
			c-0.4-0.1-0.6-0.6-0.5-1c0.1-0.5,0.6-0.7,1-0.6c1.1,0.4,2.1,0.8,3.2,1.3c0.4,0.3,0.5,0.8,0.3,1.2c-0.2,0.3-0.5,0.4-0.7,0.4
			s-0.4,0-0.5-0.1C345.6,19.1,344.6,18.7,343.6,18.3z M344.3,45.6c1-0.3,1.9-0.8,2.8-1.4c0.4-0.2,0.9-0.1,1.1,0.3
			c0.3,0.3,0.1,0.8-0.2,1c-1,0.6-2.1,1.1-3.1,1.5h-0.3c-0.3,0-0.6-0.1-0.8-0.5C343.6,46.2,343.9,45.7,344.3,45.6z M345.4,31.8
			c-0.4,0-0.8-0.3-0.8-0.8s0.4-0.8,0.8-0.8h3.3c0.5,0,0.8,0.3,0.8,0.8s-0.3,0.8-0.8,0.8H345.4z M348.9,21.4c-0.3-0.3-0.3-0.8,0-1.2
			c0.3-0.3,0.8-0.4,1.2-0.1c0.8,0.8,1.5,1.6,2.3,2.6c0.2,0.3,0.1,0.9-0.3,1.2c-0.1,0.1-0.3,0.1-0.5,0.1c-0.3,0-0.5-0.1-0.6-0.4
			C350.4,22.8,349.7,22,348.9,21.4z M349.4,42.3c0.7-0.7,1.4-1.6,1.9-2.5c0.3-0.3,0.7-0.5,1.2-0.2c0.3,0.2,0.5,0.7,0.3,1.1
			c-0.7,1-1.4,1.9-2.2,2.7c-0.1,0.2-0.3,0.3-0.6,0.3c-0.2,0-0.4-0.1-0.6-0.3C349.1,43.1,349.1,42.6,349.4,42.3z M351.9,31.8
			c-0.4,0-0.8-0.3-0.8-0.8s0.4-0.8,0.8-0.8h2.5c0.4,0,0.8,0.3,0.8,0.8s-0.5,0.8-0.8,0.8H351.9z M352.5,26.3c-0.3-0.4,0-0.8,0.4-1
			c0.4-0.2,0.9,0,1.1,0.5c0.4,0.9,0.7,2.1,0.9,3.2c0.1,0.4-0.1,0.8-0.6,1h-0.2c-0.3,0-0.7-0.3-0.8-0.6
			C353.2,28.3,352.8,27.3,352.5,26.3z"/>
		<path d="M366.3,17c0-0.5,0.3-0.8,0.8-0.8c0.4,0,0.8,0.4,0.8,0.8v3.2c0,0.5-0.4,0.8-0.8,0.8c-0.5,0-0.8-0.3-0.8-0.8V17z
			 M367.1,28.3c-0.5,0-0.8-0.4-0.8-0.9v-0.3c-0.1-0.1-0.1-0.3-0.1-0.5v-3.2c0-0.4,0.3-0.8,0.8-0.8c0.4,0,0.8,0.4,0.8,0.8v0.1
			c0.1,0,0.2,0,0.3,0.1c0.4,0.1,0.6,0.6,0.5,1c-0.5,1-0.7,1.9-0.7,2.9C367.9,28.1,367.6,28.3,367.1,28.3L367.1,28.3z M366.3,30.8
			v-0.1V30c0-0.5,0.3-0.8,0.8-0.8c0.4,0,0.8,0.4,0.8,0.8v4.1c0,0.5-0.4,0.8-0.8,0.8c-0.5,0-0.8-0.3-0.8-0.8V30.8z M366.3,37.4v-0.1
			v-0.7c0-0.4,0.3-0.8,0.8-0.8c0.4,0,0.8,0.4,0.8,0.8v3.3V40v0.6c0,0.5-0.4,0.8-0.8,0.8c-0.5,0-0.8-0.3-0.8-0.8V37.4z M366.3,46.5
			v-0.2v-2.5v-0.1V43c0-0.4,0.3-0.8,0.8-0.8c0.4,0,0.8,0.4,0.8,0.8v0.7v0.1v2.5v0.2v0.6c0,0.5-0.4,0.8-0.8,0.8
			c-0.5,0-0.8-0.3-0.8-0.8V46.5z M368.9,21.1c0.7-0.8,1.6-1.7,2.5-2.4c0.3-0.3,0.9-0.2,1.2,0.1c0.3,0.5,0.1,0.9-0.2,1.2
			c-0.8,0.6-1.5,1.3-2.2,2.1c-0.1,0.2-0.4,0.3-0.6,0.3c-0.1,0-0.3-0.1-0.5-0.1C368.7,22,368.6,21.5,368.9,21.1z M374.4,17
			c1.1-0.4,2.3-0.7,3.4-0.8c0.5-0.1,0.8,0.3,0.9,0.8c0,0.4-0.3,0.8-0.7,0.9c-1.1,0-2,0.3-3.1,0.6c-0.1,0.1-0.1,0.1-0.2,0.1
			c-0.4,0-0.7-0.2-0.7-0.5C373.9,17.6,374.1,17.2,374.4,17z M381,17.9c-0.5,0-0.7-0.5-0.6-0.8c0-0.5,0.5-0.7,0.8-0.6
			c1.2,0.1,2.3,0.6,3.4,1c0.4,0.1,0.5,0.6,0.3,1c-0.1,0.3-0.5,0.5-0.8,0.5c-0.1,0-0.3,0-0.3-0.1C383,18.5,382,18.2,381,17.9z
			 M386.4,20.5c-0.3-0.3-0.4-0.7-0.1-1.2c0.3-0.3,0.8-0.3,1.2-0.1c0.8,0.8,1.6,1.8,2.3,2.7c0.2,0.3,0.2,0.9-0.3,1.2
			c-0.1,0.1-0.3,0.1-0.4,0.1c-0.4,0-0.6-0.1-0.8-0.3C387.8,22,387.1,21.3,386.4,20.5z M389.6,25.6c-0.1-0.5,0.1-0.9,0.6-1
			c0.4-0.2,0.8,0.1,0.9,0.5c0.3,1.2,0.6,2.3,0.6,3.4c0,0.5-0.3,0.8-0.7,0.9H391c-0.5,0-0.8-0.4-0.8-0.8
			C390.2,27.6,390,26.6,389.6,25.6z M390.2,31.8c0-0.5,0.4-0.8,0.8-0.8c0.5,0,0.8,0.3,0.8,0.8v3.3c0,0.4-0.3,0.8-0.8,0.8
			c-0.5,0-0.8-0.4-0.8-0.8V31.8z M390.2,38.4c0-0.5,0.4-0.8,0.8-0.8c0.5,0,0.8,0.3,0.8,0.8v3.2c0,0.5-0.3,0.8-0.8,0.8
			c-0.5,0-0.8-0.4-0.8-0.8V38.4z M390.2,45c0-0.5,0.4-0.8,0.8-0.8c0.5,0,0.8,0.3,0.8,0.8v2.1c0,0.5-0.3,0.8-0.8,0.8
			c-0.5,0-0.8-0.3-0.8-0.8V45z"/>
	</g>
</g>
<g id="circle-stroke">
</g>
<g id="_x34_-circle-stroke">
</g>
<g id="cross">
</g>
<g id="squares">
</g>
<g id="X">
</g>
</svg>
